<svg xmlns="http://www.w3.org/2000/svg" version="1.1" xmlns:xlink="http://www.w3.org/1999/xlink" xmlns:svgjs="http://svgjs.dev/svgjs" viewBox="0 0 800 400"><path d="M172.64573669433594,177.57847595214844C174.8236139678955,175.1195819091797,196.93571985880533,146.2585937245687,200.44842529296875,146.18833923339844C203.96113072713217,146.11808474222818,213.83557037353515,176.89237238566082,217.48878479003906,176.68161010742188C221.14199920654298,176.47084782918293,243.08072059631348,143.6382647450765,247.085205078125,143.4977569580078C251.08968955993652,143.35724917093913,264.25410873413085,175.23916374206544,268.60986328125,174.8878936767578C272.96561782836915,174.53662361145018,298.3348277282715,139.57549179077148,302.6905822753906,139.01345825195312C307.0463368225098,138.45142471313477,319.22719909667967,167.99401420593261,324.2152404785156,167.71299743652344C329.2032818603516,167.43198066711426,362.08220504760743,136.05829696655275,366.3677062988281,135.42601013183594C370.6532075500488,134.79372329711913,377.9402089945475,157.74439010620117,378.92376708984375,159.64125061035156C379.90732518514,161.53811111450196,376.9566508992513,161.67861890157064,378.92376708984375,159.64125061035156C380.8908832804362,157.60388231913248,402.06877248128256,135.66966199239096,404.035888671875,133.63229370117188" fill="none" stroke-width="5" stroke="hsl(70, 69%, 50%)" stroke-linecap="round"></path><defs><linearGradient id="SvgjsLinearGradient1001"><stop stop-color="hsl(37, 99%, 67%)" offset="0"></stop><stop stop-color="hsl(316, 73%, 52%)" offset="1"></stop></linearGradient></defs></svg>