<svg xmlns="http://www.w3.org/2000/svg" version="1.1" xmlns:xlink="http://www.w3.org/1999/xlink" xmlns:svgjs="http://svgjs.dev/svgjs" viewBox="0 0 800 800" width="800" height="800"><g stroke-width="3.5" stroke="#4cfbca" fill="none"><circle r="7.2368421052631575" cx="0" cy="0" fill="#4cfbca" stroke="none"></circle><circle r="7.2368421052631575" cx="80" cy="0" fill="#4cfbca" stroke="none"></circle><circle r="7.2368421052631575" cx="160" cy="0" fill="#4cfbca" stroke="none"></circle><circle r="7.2368421052631575" cx="240" cy="0" fill="#4cfbca" stroke="none"></circle><circle r="7.2368421052631575" cx="320" cy="0" fill="#4cfbca" stroke="none"></circle><circle r="7.2368421052631575" cx="400" cy="0" fill="#4cfbca" stroke="none"></circle><circle r="7.2368421052631575" cx="480" cy="0" fill="#4cfbca" stroke="none"></circle><circle r="7.2368421052631575" cx="560" cy="0" fill="#4cfbca" stroke="none"></circle><circle r="7.2368421052631575" cx="640" cy="0" fill="#4cfbca" stroke="none"></circle><circle r="7.2368421052631575" cx="720" cy="0" fill="#4cfbca" stroke="none"></circle><circle r="7.2368421052631575" cx="800" cy="0" fill="#4cfbca" stroke="none"></circle><circle r="7.2368421052631575" cx="0" cy="66.66666666666667" fill="#4cfbca" stroke="none"></circle><circle r="7.2368421052631575" cx="80" cy="66.66666666666667" fill="#4cfbca" stroke="none"></circle><circle r="7.2368421052631575" cx="160" cy="66.66666666666667" fill="#4cfbca" stroke="none"></circle><circle r="7.2368421052631575" cx="240" cy="66.66666666666667" fill="none"></circle><circle r="7.2368421052631575" cx="320" cy="66.66666666666667" fill="#4cfbca" stroke="none"></circle><circle r="7.2368421052631575" cx="400" cy="66.66666666666667" fill="#4cfbca" stroke="none"></circle><circle r="7.2368421052631575" cx="480" cy="66.66666666666667" fill="none"></circle><circle r="7.2368421052631575" cx="560" cy="66.66666666666667" fill="none"></circle><circle r="7.2368421052631575" cx="640" cy="66.66666666666667" fill="#4cfbca" stroke="none"></circle><circle r="7.2368421052631575" cx="720" cy="66.66666666666667" fill="#4cfbca" stroke="none"></circle><circle r="7.2368421052631575" cx="800" cy="66.66666666666667" fill="#4cfbca" stroke="none"></circle><circle r="7.2368421052631575" cx="0" cy="133.33333333333334" fill="#4cfbca" stroke="none"></circle><circle r="7.2368421052631575" cx="80" cy="133.33333333333334" fill="#4cfbca" stroke="none"></circle><circle r="7.2368421052631575" cx="160" cy="133.33333333333334" fill="#4cfbca" stroke="none"></circle><circle r="7.2368421052631575" cx="240" cy="133.33333333333334" fill="#4cfbca" stroke="none"></circle><circle r="7.2368421052631575" cx="320" cy="133.33333333333334" fill="#4cfbca" stroke="none"></circle><circle r="7.2368421052631575" cx="400" cy="133.33333333333334" fill="#4cfbca" stroke="none"></circle><circle r="7.2368421052631575" cx="480" cy="133.33333333333334" fill="#4cfbca" stroke="none"></circle><circle r="7.2368421052631575" cx="560" cy="133.33333333333334" fill="#4cfbca" stroke="none"></circle><circle r="7.2368421052631575" cx="640" cy="133.33333333333334" fill="#4cfbca" stroke="none"></circle><circle r="7.2368421052631575" cx="720" cy="133.33333333333334" fill="#4cfbca" stroke="none"></circle><circle r="7.2368421052631575" cx="800" cy="133.33333333333334" fill="#4cfbca" stroke="none"></circle><circle r="7.2368421052631575" cx="0" cy="200" fill="#4cfbca" stroke="none"></circle><circle r="7.2368421052631575" cx="80" cy="200" fill="#4cfbca" stroke="none"></circle><circle r="7.2368421052631575" cx="160" cy="200" fill="#4cfbca" stroke="none"></circle><circle r="7.2368421052631575" cx="240" cy="200" fill="none"></circle><circle r="7.2368421052631575" cx="320" cy="200" fill="#4cfbca" stroke="none"></circle><circle r="7.2368421052631575" cx="400" cy="200" fill="#4cfbca" stroke="none"></circle><circle r="7.2368421052631575" cx="480" cy="200" fill="none"></circle><circle r="7.2368421052631575" cx="560" cy="200" fill="#4cfbca" stroke="none"></circle><circle r="7.2368421052631575" cx="640" cy="200" fill="#4cfbca" stroke="none"></circle><circle r="7.2368421052631575" cx="720" cy="200" fill="#4cfbca" stroke="none"></circle><circle r="7.2368421052631575" cx="800" cy="200" fill="#4cfbca" stroke="none"></circle><circle r="7.2368421052631575" cx="0" cy="266.6666666666667" fill="#4cfbca" stroke="none"></circle><circle r="7.2368421052631575" cx="80" cy="266.6666666666667" fill="#4cfbca" stroke="none"></circle><circle r="7.2368421052631575" cx="160" cy="266.6666666666667" fill="#4cfbca" stroke="none"></circle><circle r="7.2368421052631575" cx="240" cy="266.6666666666667" fill="#4cfbca" stroke="none"></circle><circle r="7.2368421052631575" cx="320" cy="266.6666666666667" fill="#4cfbca" stroke="none"></circle><circle r="7.2368421052631575" cx="400" cy="266.6666666666667" fill="none"></circle><circle r="7.2368421052631575" cx="480" cy="266.6666666666667" fill="#4cfbca" stroke="none"></circle><circle r="7.2368421052631575" cx="560" cy="266.6666666666667" fill="#4cfbca" stroke="none"></circle><circle r="7.2368421052631575" cx="640" cy="266.6666666666667" fill="#4cfbca" stroke="none"></circle><circle r="7.2368421052631575" cx="720" cy="266.6666666666667" fill="none"></circle><circle r="7.2368421052631575" cx="800" cy="266.6666666666667" fill="#4cfbca" stroke="none"></circle><circle r="7.2368421052631575" cx="0" cy="333.33333333333337" fill="#4cfbca" stroke="none"></circle><circle r="7.2368421052631575" cx="80" cy="333.33333333333337" fill="#4cfbca" stroke="none"></circle><circle r="7.2368421052631575" cx="160" cy="333.33333333333337" fill="none"></circle><circle r="7.2368421052631575" cx="240" cy="333.33333333333337" fill="#4cfbca" stroke="none"></circle><circle r="7.2368421052631575" cx="320" cy="333.33333333333337" fill="none"></circle><circle r="7.2368421052631575" cx="400" cy="333.33333333333337" fill="#4cfbca" stroke="none"></circle><circle r="7.2368421052631575" cx="480" cy="333.33333333333337" fill="#4cfbca" stroke="none"></circle><circle r="7.2368421052631575" cx="560" cy="333.33333333333337" fill="#4cfbca" stroke="none"></circle><circle r="7.2368421052631575" cx="640" cy="333.33333333333337" fill="#4cfbca" stroke="none"></circle><circle r="7.2368421052631575" cx="720" cy="333.33333333333337" fill="#4cfbca" stroke="none"></circle><circle r="7.2368421052631575" cx="800" cy="333.33333333333337" fill="#4cfbca" stroke="none"></circle><circle r="7.2368421052631575" cx="0" cy="400.00000000000006" fill="#4cfbca" stroke="none"></circle><circle r="7.2368421052631575" cx="80" cy="400.00000000000006" fill="#4cfbca" stroke="none"></circle><circle r="7.2368421052631575" cx="160" cy="400.00000000000006" fill="#4cfbca" stroke="none"></circle><circle r="7.2368421052631575" cx="240" cy="400.00000000000006" fill="#4cfbca" stroke="none"></circle><circle r="7.2368421052631575" cx="320" cy="400.00000000000006" fill="#4cfbca" stroke="none"></circle><circle r="7.2368421052631575" cx="400" cy="400.00000000000006" fill="none"></circle><circle r="7.2368421052631575" cx="480" cy="400.00000000000006" fill="#4cfbca" stroke="none"></circle><circle r="7.2368421052631575" cx="560" cy="400.00000000000006" fill="#4cfbca" stroke="none"></circle><circle r="7.2368421052631575" cx="640" cy="400.00000000000006" fill="#4cfbca" stroke="none"></circle><circle r="7.2368421052631575" cx="720" cy="400.00000000000006" fill="none"></circle><circle r="7.2368421052631575" cx="800" cy="400.00000000000006" fill="#4cfbca" stroke="none"></circle><circle r="7.2368421052631575" cx="0" cy="466.66666666666674" fill="#4cfbca" stroke="none"></circle><circle r="7.2368421052631575" cx="80" cy="466.66666666666674" fill="#4cfbca" stroke="none"></circle><circle r="7.2368421052631575" cx="160" cy="466.66666666666674" fill="#4cfbca" stroke="none"></circle><circle r="7.2368421052631575" cx="240" cy="466.66666666666674" fill="#4cfbca" stroke="none"></circle><circle r="7.2368421052631575" cx="320" cy="466.66666666666674" fill="#4cfbca" stroke="none"></circle><circle r="7.2368421052631575" cx="400" cy="466.66666666666674" fill="none"></circle><circle r="7.2368421052631575" cx="480" cy="466.66666666666674" fill="#4cfbca" stroke="none"></circle><circle r="7.2368421052631575" cx="560" cy="466.66666666666674" fill="#4cfbca" stroke="none"></circle><circle r="7.2368421052631575" cx="640" cy="466.66666666666674" fill="#4cfbca" stroke="none"></circle><circle r="7.2368421052631575" cx="720" cy="466.66666666666674" fill="none"></circle><circle r="7.2368421052631575" cx="800" cy="466.66666666666674" fill="#4cfbca" stroke="none"></circle><circle r="7.2368421052631575" cx="0" cy="533.3333333333334" fill="#4cfbca" stroke="none"></circle><circle r="7.2368421052631575" cx="80" cy="533.3333333333334" fill="#4cfbca" stroke="none"></circle><circle r="7.2368421052631575" cx="160" cy="533.3333333333334" fill="none"></circle><circle r="7.2368421052631575" cx="240" cy="533.3333333333334" fill="none"></circle><circle r="7.2368421052631575" cx="320" cy="533.3333333333334" fill="#4cfbca" stroke="none"></circle><circle r="7.2368421052631575" cx="400" cy="533.3333333333334" fill="none"></circle><circle r="7.2368421052631575" cx="480" cy="533.3333333333334" fill="none"></circle><circle r="7.2368421052631575" cx="560" cy="533.3333333333334" fill="#4cfbca" stroke="none"></circle><circle r="7.2368421052631575" cx="640" cy="533.3333333333334" fill="#4cfbca" stroke="none"></circle><circle r="7.2368421052631575" cx="720" cy="533.3333333333334" fill="#4cfbca" stroke="none"></circle><circle r="7.2368421052631575" cx="800" cy="533.3333333333334" fill="#4cfbca" stroke="none"></circle><circle r="7.2368421052631575" cx="0" cy="600" fill="#4cfbca" stroke="none"></circle><circle r="7.2368421052631575" cx="80" cy="600" fill="none"></circle><circle r="7.2368421052631575" cx="160" cy="600" fill="#4cfbca" stroke="none"></circle><circle r="7.2368421052631575" cx="240" cy="600" fill="none"></circle><circle r="7.2368421052631575" cx="320" cy="600" fill="#4cfbca" stroke="none"></circle><circle r="7.2368421052631575" cx="400" cy="600" fill="#4cfbca" stroke="none"></circle><circle r="7.2368421052631575" cx="480" cy="600" fill="none"></circle><circle r="7.2368421052631575" cx="560" cy="600" fill="#4cfbca" stroke="none"></circle><circle r="7.2368421052631575" cx="640" cy="600" fill="none"></circle><circle r="7.2368421052631575" cx="720" cy="600" fill="none"></circle><circle r="7.2368421052631575" cx="800" cy="600" fill="#4cfbca" stroke="none"></circle><circle r="7.2368421052631575" cx="0" cy="666.6666666666666" fill="#4cfbca" stroke="none"></circle><circle r="7.2368421052631575" cx="80" cy="666.6666666666666" fill="none"></circle><circle r="7.2368421052631575" cx="160" cy="666.6666666666666" fill="#4cfbca" stroke="none"></circle><circle r="7.2368421052631575" cx="240" cy="666.6666666666666" fill="#4cfbca" stroke="none"></circle><circle r="7.2368421052631575" cx="320" cy="666.6666666666666" fill="none"></circle><circle r="7.2368421052631575" cx="400" cy="666.6666666666666" fill="#4cfbca" stroke="none"></circle><circle r="7.2368421052631575" cx="480" cy="666.6666666666666" fill="#4cfbca" stroke="none"></circle><circle r="7.2368421052631575" cx="560" cy="666.6666666666666" fill="#4cfbca" stroke="none"></circle><circle r="7.2368421052631575" cx="640" cy="666.6666666666666" fill="#4cfbca" stroke="none"></circle><circle r="7.2368421052631575" cx="720" cy="666.6666666666666" fill="none"></circle><circle r="7.2368421052631575" cx="800" cy="666.6666666666666" fill="#4cfbca" stroke="none"></circle><circle r="7.2368421052631575" cx="0" cy="733.3333333333333" fill="#4cfbca" stroke="none"></circle><circle r="7.2368421052631575" cx="80" cy="733.3333333333333" fill="none"></circle><circle r="7.2368421052631575" cx="160" cy="733.3333333333333" fill="#4cfbca" stroke="none"></circle><circle r="7.2368421052631575" cx="240" cy="733.3333333333333" fill="#4cfbca" stroke="none"></circle><circle r="7.2368421052631575" cx="320" cy="733.3333333333333" fill="#4cfbca" stroke="none"></circle><circle r="7.2368421052631575" cx="400" cy="733.3333333333333" fill="#4cfbca" stroke="none"></circle><circle r="7.2368421052631575" cx="480" cy="733.3333333333333" fill="none"></circle><circle r="7.2368421052631575" cx="560" cy="733.3333333333333" fill="#4cfbca" stroke="none"></circle><circle r="7.2368421052631575" cx="640" cy="733.3333333333333" fill="none"></circle><circle r="7.2368421052631575" cx="720" cy="733.3333333333333" fill="#4cfbca" stroke="none"></circle><circle r="7.2368421052631575" cx="800" cy="733.3333333333333" fill="#4cfbca" stroke="none"></circle><circle r="7.2368421052631575" cx="0" cy="799.9999999999999" fill="#4cfbca" stroke="none"></circle><circle r="7.2368421052631575" cx="80" cy="799.9999999999999" fill="#4cfbca" stroke="none"></circle><circle r="7.2368421052631575" cx="160" cy="799.9999999999999" fill="#4cfbca" stroke="none"></circle><circle r="7.2368421052631575" cx="240" cy="799.9999999999999" fill="#4cfbca" stroke="none"></circle><circle r="7.2368421052631575" cx="320" cy="799.9999999999999" fill="#4cfbca" stroke="none"></circle><circle r="7.2368421052631575" cx="400" cy="799.9999999999999" fill="#4cfbca" stroke="none"></circle><circle r="7.2368421052631575" cx="480" cy="799.9999999999999" fill="#4cfbca" stroke="none"></circle><circle r="7.2368421052631575" cx="560" cy="799.9999999999999" fill="#4cfbca" stroke="none"></circle><circle r="7.2368421052631575" cx="640" cy="799.9999999999999" fill="#4cfbca" stroke="none"></circle><circle r="7.2368421052631575" cx="720" cy="799.9999999999999" fill="#4cfbca" stroke="none"></circle><circle r="7.2368421052631575" cx="800" cy="799.9999999999999" fill="#4cfbca" stroke="none"></circle></g></svg>